CrispyWide Black-MinGrade-shadow.ufo
<glyph name="zero" format="2">
  <advance width="5326"/>
  <unicode hex="0030"/>
  <outline>
    <contour>
      <point x="162" y="1451" type="line"/>
      <point x="162" y="-152" type="line"/>
      <point x="5033" y="-152" type="line"/>
      <point x="5184" y="-1" type="line"/>
      <point x="5184" y="1602" type="line"/>
      <point x="313" y="1602" type="line"/>
    </contour>
    <contour>
      <point x="166" y="-148" type="line"/>
      <point x="166" y="1449" type="line"/>
      <point x="315" y="1598" type="line"/>
      <point x="5180" y="1598" type="line"/>
      <point x="5180" y="1" type="line"/>
      <point x="5031" y="-148" type="line"/>
    </contour>
    <contour>
      <point x="4126" y="591" type="line"/>
      <point x="4126" y="859" type="line"/>
      <point x="1221" y="859" type="line"/>
      <point x="1221" y="591" type="line"/>
    </contour>
    <contour>
      <point x="1225" y="595" type="line"/>
      <point x="1225" y="855" type="line"/>
      <point x="4122" y="855" type="line"/>
      <point x="4122" y="595" type="line"/>
    </contour>
  </outline>
</glyph>
<glyph name="two" format="2">
  <advance width="4912"/>
  <unicode hex="0032"/>
  <outline>
    <contour>
      <point x="4892" y="1602" type="line"/>
      <point x="193" y="1602" type="line"/>
      <point x="42" y="1451" type="line"/>
      <point x="42" y="853" type="line"/>
      <point x="51" y="853" type="line"/>
      <point x="39" y="841" type="line"/>
      <point x="39" y="-152" type="line"/>
      <point x="4741" y="-152" type="line"/>
      <point x="4892" y="-1" type="line"/>
      <point x="4892" y="571" type="line"/>
      <point x="4865" y="571" type="line"/>
      <point x="4892" y="598" type="line"/>
    </contour>
    <contour>
      <point x="61" y="857" type="line"/>
      <point x="46" y="857" type="line"/>
      <point x="46" y="1449" type="line"/>
      <point x="195" y="1598" type="line"/>
      <point x="4888" y="1598" type="line"/>
      <point x="4888" y="600" type="line"/>
      <point x="4855" y="567" type="line"/>
      <point x="4888" y="567" type="line"/>
      <point x="4888" y="1" type="line"/>
      <point x="4739" y="-148" type="line"/>
      <point x="43" y="-148" type="line"/>
      <point x="43" y="839" type="line"/>
    </contour>
  </outline>
</glyph>
<glyph name="six" format="2">
  <advance width="5050"/>
  <unicode hex="0036"/>
  <outline>
    <contour>
      <point x="652" y="1602" type="line"/>
      <point x="162" y="1200" type="line"/>
      <point x="11" y="1050" type="line"/>
      <point x="11" y="-152" type="line"/>
      <point x="4880" y="-152" type="line"/>
      <point x="5031" y="-1" type="line"/>
      <point x="5031" y="1045" type="line"/>
      <point x="5028" y="1045" type="line"/>
      <point x="5030" y="1047" type="line"/>
      <point x="5030" y="1602" type="line"/>
    </contour>
    <contour>
      <point x="5018" y="1041" type="line"/>
      <point x="5027" y="1041" type="line"/>
      <point x="5027" y="1" type="line"/>
      <point x="4878" y="-148" type="line"/>
      <point x="15" y="-148" type="line"/>
      <point x="15" y="1048" type="line"/>
      <point x="164" y="1198" type="line"/>
      <point x="654" y="1598" type="line"/>
      <point x="5026" y="1598" type="line"/>
      <point x="5026" y="1049" type="line"/>
    </contour>
  </outline>
</glyph>
<glyph name="eight" format="2">
  <advance width="5212"/>
  <unicode hex="0038"/>
  <outline>
    <contour>
      <point x="5220" y="-1" type="line"/>
      <point x="5220" y="593" type="line"/>
      <point x="4906" y="767" type="line"/>
      <point x="5066" y="855" type="line"/>
      <point x="5217" y="1006" type="line"/>
      <point x="5217" y="1602" type="line"/>
      <point x="166" y="1602" type="line"/>
      <point x="15" y="1451" type="line"/>
      <point x="15" y="856" type="line"/>
      <point x="325" y="684" type="line"/>
      <point x="163" y="594" type="line"/>
      <point x="12" y="443" type="line"/>
      <point x="12" y="-152" type="line"/>
      <point x="5069" y="-152" type="line"/>
    </contour>
    <contour>
      <point x="333" y="684" type="line"/>
      <point x="19" y="858" type="line"/>
      <point x="19" y="1449" type="line"/>
      <point x="168" y="1598" type="line"/>
      <point x="5213" y="1598" type="line"/>
      <point x="5213" y="1008" type="line"/>
      <point x="5064" y="859" type="line"/>
      <point x="4898" y="767" type="line"/>
      <point x="5216" y="591" type="line"/>
      <point x="5216" y="1" type="line"/>
      <point x="5067" y="-148" type="line"/>
      <point x="16" y="-148" type="line"/>
      <point x="16" y="441" type="line"/>
      <point x="165" y="590" type="line"/>
    </contour>
  </outline>
</glyph>
<glyph name="B" format="2">
  <advance width="5248"/>
  <unicode hex="0042"/>
  <outline>
    <contour>
      <point x="4895" y="1602" type="line"/>
      <point x="315" y="1602" type="line"/>
      <point x="164" y="1451" type="line"/>
      <point x="164" y="-152" type="line"/>
      <point x="4621" y="-152" type="line"/>
      <point x="4771" y="-1" type="line"/>
      <point x="4771" y="-1" type="line"/>
      <point x="4771" y="-1" type="line"/>
      <point x="5259" y="534" type="line"/>
      <point x="5259" y="1045" type="line"/>
      <point x="4895" y="1045" type="line"/>
    </contour>
    <contour>
      <point x="4891" y="1041" type="line"/>
      <point x="5255" y="1041" type="line"/>
      <point x="5255" y="536" type="line"/>
      <point x="4769" y="1" type="line"/>
      <point x="4619" y="-148" type="line"/>
      <point x="168" y="-148" type="line"/>
      <point x="168" y="1449" type="line"/>
      <point x="317" y="1598" type="line"/>
      <point x="4891" y="1598" type="line"/>
    </contour>
  </outline>
</glyph>
<glyph name="C" format="2">
  <advance width="5025"/>
  <unicode hex="0043"/>
  <outline>
    <contour>
      <point x="5005" y="1602" type="line"/>
      <point x="650" y="1602" type="line"/>
      <point x="500" y="1451" type="line"/>
      <point x="500" y="1451" type="line"/>
      <point x="500" y="1451" type="line"/>
      <point x="13" y="919" type="line"/>
      <point x="13" y="-152" type="line"/>
      <point x="4852" y="-152" type="line"/>
      <point x="5003" y="-1" type="line"/>
      <point x="5003" y="746" type="line"/>
      <point x="4090" y="746" type="line"/>
      <point x="3939" y="595" type="line"/>
      <point x="3939" y="532" type="line"/>
      <point x="1075" y="532" type="line"/>
      <point x="1075" y="870" type="line"/>
      <point x="1118" y="918" type="line"/>
      <point x="3941" y="918" type="line"/>
      <point x="3941" y="762" type="line"/>
      <point x="4854" y="762" type="line"/>
      <point x="5005" y="913" type="line"/>
    </contour>
    <contour>
      <point x="1071" y="872" type="line"/>
      <point x="1071" y="528" type="line"/>
      <point x="3943" y="528" type="line"/>
      <point x="3943" y="593" type="line"/>
      <point x="4092" y="742" type="line"/>
      <point x="4999" y="742" type="line"/>
      <point x="4999" y="1" type="line"/>
      <point x="4850" y="-148" type="line"/>
      <point x="17" y="-148" type="line"/>
      <point x="17" y="917" type="line"/>
      <point x="502" y="1449" type="line"/>
      <point x="652" y="1598" type="line"/>
      <point x="5001" y="1598" type="line"/>
      <point x="5001" y="915" type="line"/>
      <point x="4852" y="766" type="line"/>
      <point x="3945" y="766" type="line"/>
      <point x="3945" y="922" type="line"/>
      <point x="1116" y="922" type="line"/>
    </contour>
  </outline>
</glyph>
<glyph name="G" format="2">
  <advance width="4998"/>
  <unicode hex="0047"/>
  <outline>
    <contour>
      <point x="4979" y="1602" type="line"/>
      <point x="657" y="1602" type="line"/>
      <point x="10" y="955" type="line"/>
      <point x="10" y="-152" type="line"/>
      <point x="4826" y="-152" type="line"/>
      <point x="4977" y="-1" type="line"/>
      <point x="4977" y="1044" type="line"/>
      <point x="4942" y="1044" type="line"/>
      <point x="4979" y="1081" type="line"/>
    </contour>
    <contour>
      <point x="4932" y="1040" type="line"/>
      <point x="4973" y="1040" type="line"/>
      <point x="4973" y="1" type="line"/>
      <point x="4824" y="-148" type="line"/>
      <point x="14" y="-148" type="line"/>
      <point x="14" y="953" type="line"/>
      <point x="659" y="1598" type="line"/>
      <point x="4975" y="1598" type="line"/>
      <point x="4975" y="1083" type="line"/>
    </contour>
    <contour>
      <point x="1068" y="903" type="line"/>
      <point x="1068" y="488" type="line"/>
      <point x="2990" y="488" type="line"/>
      <point x="2990" y="891" type="line"/>
      <point x="3061" y="962" type="line"/>
      <point x="1130" y="962" type="line"/>
    </contour>
    <contour>
      <point x="2986" y="893" type="line"/>
      <point x="2986" y="492" type="line"/>
      <point x="1072" y="492" type="line"/>
      <point x="1072" y="901" type="line"/>
      <point x="1132" y="958" type="line"/>
      <point x="3051" y="958" type="line"/>
    </contour>
  </outline>
</glyph>
<glyph name="J" format="2">
  <advance width="4523"/>
  <unicode hex="004A"/>
  <outline>
    <contour>
      <point x="1032" y="1064" type="line"/>
      <point x="188" y="1064" type="line"/>
      <point x="37" y="913" type="line"/>
      <point x="38" y="-152" type="line"/>
      <point x="4228" y="-152" type="line"/>
      <point x="4379" y="-1" type="line"/>
      <point x="4379" y="1602" type="line"/>
      <point x="3466" y="1602" type="line"/>
      <point x="3315" y="1451" type="line"/>
      <point x="3315" y="532" type="line"/>
      <point x="1032" y="532" type="line"/>
    </contour>
    <contour>
      <point x="1028" y="528" type="line"/>
      <point x="3319" y="528" type="line"/>
      <point x="3319" y="1449" type="line"/>
      <point x="3468" y="1598" type="line"/>
      <point x="4375" y="1598" type="line"/>
      <point x="4375" y="1" type="line"/>
      <point x="4226" y="-148" type="line"/>
      <point x="42" y="-148" type="line"/>
      <point x="41" y="911" type="line"/>
      <point x="190" y="1060" type="line"/>
      <point x="1028" y="1060" type="line"/>
    </contour>
  </outline>
</glyph>
<glyph name="M" format="2">
  <advance width="6521"/>
  <unicode hex="004D"/>
  <outline>
    <contour>
      <point x="1082" y="-152" type="line"/>
      <point x="1236" y="2" type="line"/>
      <point x="1083" y="2" type="line"/>
      <point x="1083" y="918" type="line"/>
      <point x="1425" y="918" type="line"/>
      <point x="2570" y="-146" type="line"/>
      <point x="3822" y="-146" type="line"/>
      <point x="4964" y="918" type="line"/>
      <point x="5307" y="918" type="line"/>
      <point x="5307" y="-152" type="line"/>
      <point x="6216" y="-152" type="line"/>
      <point x="6370" y="2" type="line"/>
      <point x="6217" y="2" type="line"/>
      <point x="6217" y="1452" type="line"/>
      <point x="4386" y="1452" type="line"/>
      <point x="3350" y="486" type="line"/>
      <point x="3039" y="486" type="line"/>
      <point x="2003" y="1452" type="line"/>
      <point x="327" y="1452" type="line"/>
      <point x="327" y="1605" type="line"/>
      <point x="173" y="1451" type="line"/>
      <point x="173" y="-152" type="line"/>
    </contour>
    <contour>
      <point x="6213" y="-2" type="line"/>
      <point x="6360" y="-2" type="line"/>
      <point x="6214" y="-148" type="line"/>
      <point x="5311" y="-148" type="line"/>
      <point x="5311" y="922" type="line"/>
      <point x="4962" y="922" type="line"/>
      <point x="3820" y="-142" type="line"/>
      <point x="2572" y="-142" type="line"/>
      <point x="1427" y="922" type="line"/>
      <point x="1079" y="922" type="line"/>
      <point x="1079" y="-2" type="line"/>
      <point x="1226" y="-2" type="line"/>
      <point x="1080" y="-148" type="line"/>
      <point x="177" y="-148" type="line"/>
      <point x="177" y="1449" type="line"/>
      <point x="323" y="1595" type="line"/>
      <point x="323" y="1448" type="line"/>
      <point x="2001" y="1448" type="line"/>
      <point x="3037" y="482" type="line"/>
      <point x="3352" y="482" type="line"/>
      <point x="4388" y="1448" type="line"/>
      <point x="6213" y="1448" type="line"/>
    </contour>
  </outline>
</glyph>
<glyph name="N" format="2">
  <advance width="5032"/>
  <unicode hex="004E"/>
  <outline>
    <contour>
      <point x="1072" y="-152" type="line"/>
      <point x="1223" y="-1" type="line"/>
      <point x="1223" y="918" type="line"/>
      <point x="1289" y="918" type="line"/>
      <point x="3157" y="-152" type="line"/>
      <point x="4738" y="-152" type="line"/>
      <point x="4889" y="-1" type="line"/>
      <point x="4889" y="1602" type="line"/>
      <point x="3981" y="1602" type="line"/>
      <point x="3830" y="1451" type="line"/>
      <point x="3830" y="546" type="line"/>
      <point x="1899" y="1602" type="line"/>
      <point x="313" y="1602" type="line"/>
      <point x="162" y="1451" type="line"/>
      <point x="163" y="-152" type="line"/>
    </contour>
    <contour>
      <point x="1291" y="922" type="line"/>
      <point x="1219" y="922" type="line"/>
      <point x="1219" y="1" type="line"/>
      <point x="1070" y="-148" type="line"/>
      <point x="167" y="-148" type="line"/>
      <point x="166" y="1449" type="line"/>
      <point x="315" y="1598" type="line"/>
      <point x="1897" y="1598" type="line"/>
      <point x="3834" y="540" type="line"/>
      <point x="3834" y="1449" type="line"/>
      <point x="3983" y="1598" type="line"/>
      <point x="4885" y="1598" type="line"/>
      <point x="4885" y="1" type="line"/>
      <point x="4736" y="-148" type="line"/>
      <point x="3159" y="-148" type="line"/>
    </contour>
  </outline>
</glyph>
<glyph name="O" format="2">
  <advance width="5193"/>
  <unicode hex="004F"/>
  <outline>
    <contour>
      <point x="496" y="1451" type="line"/>
      <point x="496" y="1451" type="line"/>
      <point x="496" y="1451" type="line"/>
      <point x="9" y="919" type="line"/>
      <point x="9" y="-152" type="line"/>
      <point x="4566" y="-152" type="line"/>
      <point x="4716" y="-1" type="line"/>
      <point x="4716" y="-1" type="line"/>
      <point x="4716" y="-1" type="line"/>
      <point x="5202" y="531" type="line"/>
      <point x="5203" y="533" type="line"/>
      <point x="5204" y="533" type="line"/>
      <point x="5204" y="1602" type="line"/>
      <point x="646" y="1602" type="line"/>
    </contour>
    <contour>
      <point x="13" y="-148" type="line"/>
      <point x="13" y="917" type="line"/>
      <point x="498" y="1449" type="line"/>
      <point x="648" y="1598" type="line"/>
      <point x="5200" y="1598" type="line"/>
      <point x="5200" y="535" type="line"/>
      <point x="4714" y="1" type="line"/>
      <point x="4564" y="-148" type="line"/>
    </contour>
    <contour>
      <point x="4102" y="528" type="line"/>
      <point x="4145" y="572" type="line"/>
      <point x="4145" y="922" type="line"/>
      <point x="1110" y="922" type="line"/>
      <point x="1068" y="877" type="line"/>
      <point x="1068" y="528" type="line"/>
    </contour>
    <contour>
      <point x="1072" y="532" type="line"/>
      <point x="1072" y="875" type="line"/>
      <point x="1112" y="918" type="line"/>
      <point x="4141" y="918" type="line"/>
      <point x="4141" y="574" type="line"/>
      <point x="4100" y="532" type="line"/>
    </contour>
  </outline>
</glyph>
<glyph name="S" format="2">
  <advance width="4792"/>
  <unicode hex="0053"/>
  <outline>
    <contour>
      <point x="526" y="1451" type="line"/>
      <point x="526" y="1451" type="line"/>
      <point x="526" y="1451" type="line"/>
      <point x="41" y="918" type="line"/>
      <point x="41" y="416" type="line"/>
      <point x="95" y="416" type="line"/>
      <point x="39" y="360" type="line"/>
      <point x="39" y="-152" type="line"/>
      <point x="4132" y="-152" type="line"/>
      <point x="4282" y="-1" type="line"/>
      <point x="4282" y="-1" type="line"/>
      <point x="4282" y="-1" type="line"/>
      <point x="4770" y="525" type="line"/>
      <point x="4771" y="527" type="line"/>
      <point x="4772" y="527" type="line"/>
      <point x="4773" y="1042" type="line"/>
      <point x="4764" y="1042" type="line"/>
      <point x="4783" y="1061" type="line"/>
      <point x="4782" y="1602" type="line"/>
      <point x="676" y="1602" type="line"/>
    </contour>
    <contour>
      <point x="105" y="420" type="line"/>
      <point x="45" y="420" type="line"/>
      <point x="45" y="916" type="line"/>
      <point x="528" y="1449" type="line"/>
      <point x="678" y="1598" type="line"/>
      <point x="4778" y="1598" type="line"/>
      <point x="4779" y="1063" type="line"/>
      <point x="4754" y="1038" type="line"/>
      <point x="4769" y="1038" type="line"/>
      <point x="4768" y="529" type="line"/>
      <point x="4280" y="1" type="line"/>
      <point x="4130" y="-148" type="line"/>
      <point x="43" y="-148" type="line"/>
      <point x="43" y="358" type="line"/>
    </contour>
  </outline>
</glyph>
<glyph name="U" format="2">
  <advance width="4772"/>
  <unicode hex="0055"/>
  <outline>
    <contour>
      <point x="4634" y="-1" type="line"/>
      <point x="4634" y="1602" type="line"/>
      <point x="3721" y="1602" type="line"/>
      <point x="3570" y="1451" type="line"/>
      <point x="3570" y="532" type="line"/>
      <point x="1066" y="532" type="line"/>
      <point x="1066" y="1602" type="line"/>
      <point x="154" y="1602" type="line"/>
      <point x="3" y="1451" type="line"/>
      <point x="3" y="-152" type="line"/>
      <point x="4483" y="-152" type="line"/>
    </contour>
    <contour>
      <point x="1062" y="528" type="line"/>
      <point x="3574" y="528" type="line"/>
      <point x="3574" y="1449" type="line"/>
      <point x="3723" y="1598" type="line"/>
      <point x="4630" y="1598" type="line"/>
      <point x="4630" y="1" type="line"/>
      <point x="4481" y="-148" type="line"/>
      <point x="7" y="-148" type="line"/>
      <point x="7" y="1449" type="line"/>
      <point x="156" y="1598" type="line"/>
      <point x="1062" y="1598" type="line"/>
    </contour>
  </outline>
</glyph>
<glyph name="X" format="2">
  <advance width="5016"/>
  <unicode hex="0058"/>
  <outline>
    <contour>
      <point x="921" y="-152" type="line"/>
      <point x="1072" y="-1" type="line"/>
      <point x="1072" y="362" type="line"/>
      <point x="3611" y="362" type="line"/>
      <point x="3965" y="129" type="line"/>
      <point x="3964" y="-152" type="line"/>
      <point x="4876" y="-152" type="line"/>
      <point x="5027" y="-1" type="line"/>
      <point x="5027" y="533" type="line"/>
      <point x="4874" y="624" type="line"/>
      <point x="5024" y="774" type="line"/>
      <point x="5024" y="1602" type="line"/>
      <point x="4112" y="1602" type="line"/>
      <point x="3961" y="1451" type="line"/>
      <point x="3961" y="1046" type="line"/>
      <point x="1334" y="1046" type="line"/>
      <point x="1075" y="1192" type="line"/>
      <point x="1075" y="1602" type="line"/>
      <point x="163" y="1602" type="line"/>
      <point x="12" y="1451" type="line"/>
      <point x="12" y="826" type="line"/>
      <point x="147" y="757" type="line"/>
      <point x="9" y="620" type="line"/>
      <point x="9" y="-152" type="line"/>
    </contour>
    <contour>
      <point x="4862" y="627" type="line"/>
      <point x="5023" y="531" type="line"/>
      <point x="5023" y="1" type="line"/>
      <point x="4874" y="-148" type="line"/>
      <point x="3968" y="-148" type="line"/>
      <point x="3969" y="131" type="line"/>
      <point x="3613" y="366" type="line"/>
      <point x="1068" y="366" type="line"/>
      <point x="1068" y="1" type="line"/>
      <point x="919" y="-148" type="line"/>
      <point x="13" y="-148" type="line"/>
      <point x="13" y="618" type="line"/>
      <point x="153" y="759" type="line"/>
      <point x="16" y="828" type="line"/>
      <point x="16" y="1449" type="line"/>
      <point x="165" y="1598" type="line"/>
      <point x="1071" y="1598" type="line"/>
      <point x="1071" y="1190" type="line"/>
      <point x="1332" y="1042" type="line"/>
      <point x="3965" y="1042" type="line"/>
      <point x="3965" y="1449" type="line"/>
      <point x="4114" y="1598" type="line"/>
      <point x="5020" y="1598" type="line"/>
      <point x="5020" y="776" type="line"/>
      <point x="4871" y="627" type="line"/>
    </contour>
  </outline>
</glyph>
<glyph name="Z" format="2">
  <advance width="4819"/>
  <unicode hex="005A"/>
  <outline>
    <contour>
      <point x="4779" y="1602" type="line"/>
      <point x="210" y="1602" type="line"/>
      <point x="59" y="1451" type="line"/>
      <point x="59" y="847" type="line"/>
      <point x="153" y="847" type="line"/>
      <point x="38" y="732" type="line"/>
      <point x="38" y="-152" type="line"/>
      <point x="4650" y="-152" type="line"/>
      <point x="4801" y="-1" type="line"/>
      <point x="4801" y="681" type="line"/>
      <point x="4085" y="681" type="line"/>
      <point x="4628" y="740" type="line"/>
      <point x="4779" y="891" type="line"/>
    </contour>
    <contour>
      <point x="163" y="851" type="line"/>
      <point x="63" y="851" type="line"/>
      <point x="63" y="1449" type="line"/>
      <point x="212" y="1598" type="line"/>
      <point x="4775" y="1598" type="line"/>
      <point x="4775" y="893" type="line"/>
      <point x="4626" y="744" type="line"/>
      <point x="4038" y="680" type="line"/>
      <point x="4038" y="677" type="line"/>
      <point x="4797" y="677" type="line"/>
      <point x="4797" y="1" type="line"/>
      <point x="4648" y="-148" type="line"/>
      <point x="42" y="-148" type="line"/>
      <point x="42" y="730" type="line"/>
    </contour>
    <contour>
      <point x="1079" y="958" type="line"/>
      <point x="1084" y="958" type="line"/>
      <point x="1084" y="962" type="line"/>
      <point x="1079" y="962" type="line"/>
    </contour>
    <contour>
      <point x="3875" y="663" type="line"/>
      <point x="2300" y="491" type="line"/>
      <point x="2300" y="488" type="line"/>
      <point x="3741" y="488" type="line"/>
      <point x="3741" y="528" type="line"/>
    </contour>
    <contour>
      <point x="3737" y="530" type="line"/>
      <point x="3737" y="492" type="line"/>
      <point x="2347" y="492" type="line"/>
      <point x="3865" y="657" type="line"/>
    </contour>
  </outline>
</glyph>
<glyph name="C.wide" format="2">
  <advance width="4352"/>
  <outline>
    <contour>
      <point x="4338" y="1602" type="line"/>
      <point x="521" y="1602" type="line"/>
      <point x="371" y="1451" type="line"/>
      <point x="371" y="1451" type="line"/>
      <point x="371" y="1451" type="line"/>
      <point x="-116" y="916" type="line"/>
      <point x="-116" y="-152" type="line"/>
      <point x="4188" y="-152" type="line"/>
      <point x="4339" y="-1" type="line"/>
      <point x="4339" y="532" type="line"/>
      <point x="947" y="532" type="line"/>
      <point x="947" y="871" type="line"/>
      <point x="990" y="918" type="line"/>
      <point x="4187" y="918" type="line"/>
      <point x="4338" y="1069" type="line"/>
    </contour>
    <contour>
      <point x="943" y="873" type="line"/>
      <point x="943" y="528" type="line"/>
      <point x="4335" y="528" type="line"/>
      <point x="4335" y="1" type="line"/>
      <point x="4186" y="-148" type="line"/>
      <point x="-112" y="-148" type="line"/>
      <point x="-112" y="914" type="line"/>
      <point x="373" y="1449" type="line"/>
      <point x="523" y="1598" type="line"/>
      <point x="4334" y="1598" type="line"/>
      <point x="4334" y="1071" type="line"/>
      <point x="4185" y="922" type="line"/>
      <point x="988" y="922" type="line"/>
    </contour>
  </outline>
</glyph>
<glyph name="E.wide" format="2">
  <advance width="4843"/>
  <outline>
    <contour>
      <point x="4813" y="1602" type="line"/>
      <point x="304" y="1602" type="line"/>
      <point x="153" y="1451" type="line"/>
      <point x="153" y="-152" type="line"/>
      <point x="4684" y="-152" type="line"/>
      <point x="4835" y="-1" type="line"/>
      <point x="4835" y="500" type="line"/>
      <point x="4228" y="500" type="line"/>
      <point x="4292" y="564" type="line"/>
      <point x="4292" y="950" type="line"/>
      <point x="4662" y="950" type="line"/>
      <point x="4813" y="1101" type="line"/>
    </contour>
    <contour>
      <point x="4288" y="954" type="line"/>
      <point x="4288" y="566" type="line"/>
      <point x="4218" y="496" type="line"/>
      <point x="4831" y="496" type="line"/>
      <point x="4831" y="1" type="line"/>
      <point x="4682" y="-148" type="line"/>
      <point x="157" y="-148" type="line"/>
      <point x="157" y="1449" type="line"/>
      <point x="306" y="1598" type="line"/>
      <point x="4809" y="1598" type="line"/>
      <point x="4809" y="1103" type="line"/>
      <point x="4660" y="954" type="line"/>
    </contour>
  </outline>
</glyph>
<glyph name="F.wide" format="2">
  <advance width="4911"/>
  <outline>
    <contour>
      <point x="1069" y="-152" type="line"/>
      <point x="1220" y="-1" type="line"/>
      <point x="1220" y="203" type="line"/>
      <point x="4372" y="203" type="line"/>
      <point x="4523" y="354" type="line"/>
      <point x="4523" y="886" type="line"/>
      <point x="1220" y="886" type="line"/>
      <point x="1220" y="918" type="line"/>
      <point x="4749" y="918" type="line"/>
      <point x="4900" y="1069" type="line"/>
      <point x="4900" y="1602" type="line"/>
      <point x="308" y="1602" type="line"/>
      <point x="157" y="1451" type="line"/>
      <point x="157" y="-152" type="line"/>
    </contour>
    <contour>
      <point x="1216" y="922" type="line"/>
      <point x="1216" y="882" type="line"/>
      <point x="4519" y="882" type="line"/>
      <point x="4519" y="356" type="line"/>
      <point x="4370" y="207" type="line"/>
      <point x="1216" y="207" type="line"/>
      <point x="1216" y="1" type="line"/>
      <point x="1067" y="-148" type="line"/>
      <point x="161" y="-148" type="line"/>
      <point x="161" y="1449" type="line"/>
      <point x="310" y="1598" type="line"/>
      <point x="4896" y="1598" type="line"/>
      <point x="4896" y="1071" type="line"/>
      <point x="4747" y="922" type="line"/>
    </contour>
  </outline>
</glyph>
<glyph name="G.wide" format="2">
  <advance width="4892"/>
  <outline>
    <contour>
      <point x="499" y="1451" type="line"/>
      <point x="499" y="1451" type="line"/>
      <point x="499" y="1451" type="line"/>
      <point x="10" y="917" type="line"/>
      <point x="10" y="-152" type="line"/>
      <point x="4754" y="-152" type="line"/>
      <point x="4905" y="-1" type="line"/>
      <point x="4905" y="1034" type="line"/>
      <point x="4826" y="1034" type="line"/>
      <point x="4892" y="1100" type="line"/>
      <point x="4892" y="1602" type="line"/>
      <point x="649" y="1602" type="line"/>
    </contour>
    <contour>
      <point x="4816" y="1030" type="line"/>
      <point x="4901" y="1030" type="line"/>
      <point x="4901" y="1" type="line"/>
      <point x="4752" y="-148" type="line"/>
      <point x="14" y="-148" type="line"/>
      <point x="14" y="915" type="line"/>
      <point x="501" y="1449" type="line"/>
      <point x="651" y="1598" type="line"/>
      <point x="4888" y="1598" type="line"/>
      <point x="4888" y="1102" type="line"/>
    </contour>
    <contour>
      <point x="1069" y="875" type="line"/>
      <point x="1069" y="497" type="line"/>
      <point x="2858" y="497" type="line"/>
      <point x="2858" y="881" type="line"/>
      <point x="2930" y="953" type="line"/>
      <point x="1131" y="953" type="line"/>
    </contour>
    <contour>
      <point x="2854" y="883" type="line"/>
      <point x="2854" y="501" type="line"/>
      <point x="1073" y="501" type="line"/>
      <point x="1073" y="873" type="line"/>
      <point x="1133" y="949" type="line"/>
      <point x="2920" y="949" type="line"/>
    </contour>
  </outline>
</glyph>
<glyph name="M.narrow" format="2">
  <advance width="7169"/>
  <outline>
    <contour>
      <point x="1084" y="-152" type="line"/>
      <point x="1235" y="-1" type="line"/>
      <point x="1235" y="801" type="line"/>
      <point x="1359" y="918" type="line"/>
      <point x="3124" y="918" type="line"/>
      <point x="3124" y="-61" type="line"/>
      <point x="4037" y="-61" type="line"/>
      <point x="4188" y="90" type="line"/>
      <point x="4188" y="918" type="line"/>
      <point x="6108" y="918" type="line"/>
      <point x="6108" y="-152" type="line"/>
      <point x="7021" y="-152" type="line"/>
      <point x="7172" y="-1" type="line"/>
      <point x="7172" y="1601" type="line"/>
      <point x="819" y="1601" type="line"/>
      <point x="669" y="1450" type="line"/>
      <point x="667" y="1449" type="line"/>
      <point x="171" y="951" type="line"/>
      <point x="171" y="-152" type="line"/>
    </contour>
    <contour>
      <point x="671" y="1448" type="line"/>
      <point x="821" y="1597" type="line"/>
      <point x="7168" y="1597" type="line"/>
      <point x="7168" y="1" type="line"/>
      <point x="7019" y="-148" type="line"/>
      <point x="6112" y="-148" type="line"/>
      <point x="6112" y="922" type="line"/>
      <point x="4184" y="922" type="line"/>
      <point x="4184" y="92" type="line"/>
      <point x="4035" y="-57" type="line"/>
      <point x="3128" y="-57" type="line"/>
      <point x="3128" y="922" type="line"/>
      <point x="1357" y="922" type="line"/>
      <point x="1231" y="803" type="line"/>
      <point x="1231" y="1" type="line"/>
      <point x="1082" y="-148" type="line"/>
      <point x="175" y="-148" type="line"/>
      <point x="175" y="949" type="line"/>
    </contour>
  </outline>
</glyph>
<glyph name="N.wide" format="2">
  <advance width="4601"/>
  <outline>
    <contour>
      <point x="1097" y="-152" type="line"/>
      <point x="1248" y="-1" type="line"/>
      <point x="1248" y="907" type="line"/>
      <point x="3185" y="-152" type="line"/>
      <point x="4497" y="-152" type="line"/>
      <point x="4648" y="-1" type="line"/>
      <point x="4648" y="1602" type="line"/>
      <point x="3737" y="1602" type="line"/>
      <point x="3586" y="1451" type="line"/>
      <point x="3586" y="545" type="line"/>
      <point x="1650" y="1602" type="line"/>
      <point x="337" y="1602" type="line"/>
      <point x="186" y="1451" type="line"/>
      <point x="186" y="-152" type="line"/>
    </contour>
    <contour>
      <point x="1244" y="913" type="line"/>
      <point x="1244" y="1" type="line"/>
      <point x="1095" y="-148" type="line"/>
      <point x="190" y="-148" type="line"/>
      <point x="190" y="1449" type="line"/>
      <point x="339" y="1598" type="line"/>
      <point x="1648" y="1598" type="line"/>
      <point x="3590" y="539" type="line"/>
      <point x="3590" y="1449" type="line"/>
      <point x="3739" y="1598" type="line"/>
      <point x="4644" y="1598" type="line"/>
      <point x="4644" y="1" type="line"/>
      <point x="4495" y="-148" type="line"/>
      <point x="3187" y="-148" type="line"/>
    </contour>
  </outline>
</glyph>
<glyph name="S.wide" format="2">
  <advance width="4986"/>
  <outline>
    <contour>
      <point x="529" y="1451" type="line"/>
      <point x="529" y="1451" type="line"/>
      <point x="529" y="1451" type="line"/>
      <point x="44" y="917" type="line"/>
      <point x="44" y="429" type="line"/>
      <point x="122" y="429" type="line"/>
      <point x="42" y="349" type="line"/>
      <point x="42" y="-152" type="line"/>
      <point x="4326" y="-152" type="line"/>
      <point x="4476" y="-1" type="line"/>
      <point x="4476" y="-1" type="line"/>
      <point x="4476" y="-1" type="line"/>
      <point x="4962" y="532" type="line"/>
      <point x="4963" y="532" type="line"/>
      <point x="4964" y="1055" type="line"/>
      <point x="4930" y="1055" type="line"/>
      <point x="4976" y="1101" type="line"/>
      <point x="4975" y="1602" type="line"/>
      <point x="679" y="1602" type="line"/>
    </contour>
    <contour>
      <point x="132" y="433" type="line"/>
      <point x="48" y="433" type="line"/>
      <point x="48" y="915" type="line"/>
      <point x="531" y="1449" type="line"/>
      <point x="681" y="1598" type="line"/>
      <point x="4971" y="1598" type="line"/>
      <point x="4972" y="1103" type="line"/>
      <point x="4920" y="1051" type="line"/>
      <point x="4960" y="1051" type="line"/>
      <point x="4959" y="534" type="line"/>
      <point x="4474" y="1" type="line"/>
      <point x="4324" y="-148" type="line"/>
      <point x="46" y="-148" type="line"/>
      <point x="46" y="347" type="line"/>
    </contour>
  </outline>
</glyph>
<glyph name="U.alt" format="2">
  <advance width="4864"/>
  <outline>
    <contour>
      <point x="4800" y="-1" type="line"/>
      <point x="4800" y="1602" type="line"/>
      <point x="3887" y="1602" type="line"/>
      <point x="3736" y="1451" type="line"/>
      <point x="3736" y="532" type="line"/>
      <point x="1145" y="532" type="line"/>
      <point x="1145" y="1602" type="line"/>
      <point x="233" y="1602" type="line"/>
      <point x="82" y="1451" type="line"/>
      <point x="82" y="-152" type="line"/>
      <point x="4649" y="-152" type="line"/>
    </contour>
    <contour>
      <point x="1141" y="528" type="line"/>
      <point x="3740" y="528" type="line"/>
      <point x="3740" y="1449" type="line"/>
      <point x="3889" y="1598" type="line"/>
      <point x="4796" y="1598" type="line"/>
      <point x="4796" y="1" type="line"/>
      <point x="4647" y="-148" type="line"/>
      <point x="86" y="-148" type="line"/>
      <point x="86" y="1449" type="line"/>
      <point x="235" y="1598" type="line"/>
      <point x="1141" y="1598" type="line"/>
    </contour>
  </outline>
</glyph>
<glyph name="one.narrow" format="2">
  <advance width="3121"/>
  <outline>
    <contour>
      <point x="2973" y="1602" type="line"/>
      <point x="194" y="1602" type="line"/>
      <point x="43" y="1451" type="line"/>
      <point x="43" y="918" type="line"/>
      <point x="1910" y="918" type="line"/>
      <point x="1910" y="-152" type="line"/>
      <point x="2822" y="-152" type="line"/>
      <point x="2973" y="-1" type="line"/>
    </contour>
    <contour>
      <point x="1914" y="922" type="line"/>
      <point x="47" y="922" type="line"/>
      <point x="47" y="1449" type="line"/>
      <point x="196" y="1598" type="line"/>
      <point x="2969" y="1598" type="line"/>
      <point x="2969" y="1" type="line"/>
      <point x="2820" y="-148" type="line"/>
      <point x="1914" y="-148" type="line"/>
    </contour>
  </outline>
</glyph>
<glyph name="three.wide" format="2">
  <advance width="5302"/>
  <outline>
    <contour>
      <point x="5155" y="-1" type="line"/>
      <point x="5155" y="1033" type="line"/>
      <point x="4828" y="1033" type="line"/>
      <point x="4828" y="1602" type="line"/>
      <point x="270" y="1602" type="line"/>
      <point x="119" y="1451" type="line"/>
      <point x="119" y="949" type="line"/>
      <point x="540" y="949" type="line"/>
      <point x="477" y="886" type="line"/>
      <point x="477" y="501" type="line"/>
      <point x="193" y="501" type="line"/>
      <point x="42" y="350" type="line"/>
      <point x="42" y="-152" type="line"/>
      <point x="5004" y="-152" type="line"/>
    </contour>
    <contour>
      <point x="550" y="953" type="line"/>
      <point x="123" y="953" type="line"/>
      <point x="123" y="1449" type="line"/>
      <point x="272" y="1598" type="line"/>
      <point x="4824" y="1598" type="line"/>
      <point x="4824" y="1029" type="line"/>
      <point x="5151" y="1029" type="line"/>
      <point x="5151" y="1" type="line"/>
      <point x="5002" y="-148" type="line"/>
      <point x="46" y="-148" type="line"/>
      <point x="46" y="348" type="line"/>
      <point x="195" y="497" type="line"/>
      <point x="481" y="497" type="line"/>
      <point x="481" y="884" type="line"/>
    </contour>
  </outline>
</glyph>
<glyph name="two.wide" format="2">
  <advance width="4761"/>
  <outline>
    <contour>
      <point x="4915" y="1602" type="line"/>
      <point x="21" y="1602" type="line"/>
      <point x="-130" y="1451" type="line"/>
      <point x="-130" y="949" type="line"/>
      <point x="-68" y="949" type="line"/>
      <point x="-133" y="884" type="line"/>
      <point x="-133" y="-152" type="line"/>
      <point x="4733" y="-152" type="line"/>
      <point x="4884" y="-1" type="line"/>
      <point x="4884" y="501" type="line"/>
      <point x="4851" y="501" type="line"/>
      <point x="4915" y="565" type="line"/>
    </contour>
    <contour>
      <point x="-58" y="953" type="line"/>
      <point x="-126" y="953" type="line"/>
      <point x="-126" y="1449" type="line"/>
      <point x="23" y="1598" type="line"/>
      <point x="4911" y="1598" type="line"/>
      <point x="4911" y="567" type="line"/>
      <point x="4841" y="497" type="line"/>
      <point x="4880" y="497" type="line"/>
      <point x="4880" y="1" type="line"/>
      <point x="4731" y="-148" type="line"/>
      <point x="-129" y="-148" type="line"/>
      <point x="-129" y="882" type="line"/>
    </contour>
  </outline>
</glyph>
